<?xml version="1.0" encoding="UTF-8" standalone="no"?>
<!-- Generator: Adobe Illustrator 16.0.0, SVG Export Plug-In . SVG Version: 6.00 Build 0)  -->

<svg
   xmlns:dc="http://purl.org/dc/elements/1.1/"
   xmlns:cc="http://creativecommons.org/ns#"
   xmlns:rdf="http://www.w3.org/1999/02/22-rdf-syntax-ns#"
   xmlns:svg="http://www.w3.org/2000/svg"
   xmlns="http://www.w3.org/2000/svg"
   xmlns:sodipodi="http://sodipodi.sourceforge.net/DTD/sodipodi-0.dtd"
   xmlns:inkscape="http://www.inkscape.org/namespaces/inkscape"
   version="1.1"
   id="Layer_1"
   x="0px"
   y="0px"
   width="512px"
   height="512px"
   viewBox="0 0 512 512"
   enable-background="new 0 0 512 512"
   xml:space="preserve"
   inkscape:version="0.91 r13725"
   sodipodi:docname="receipt-5.svg"><metadata
     id="metadata6282"><rdf:RDF><cc:Work
         rdf:about=""><dc:format>image/svg+xml</dc:format><dc:type
           rdf:resource="http://purl.org/dc/dcmitype/StillImage" /></cc:Work></rdf:RDF></metadata><defs
     id="defs6280" /><sodipodi:namedview
     pagecolor="#ffffff"
     bordercolor="#666666"
     borderopacity="1"
     objecttolerance="10"
     gridtolerance="10"
     guidetolerance="10"
     inkscape:pageopacity="0"
     inkscape:pageshadow="2"
     inkscape:window-width="1230"
     inkscape:window-height="704"
     id="namedview6278"
     showgrid="false"
     inkscape:snap-text-baseline="true"
     inkscape:zoom="0.4609375"
     inkscape:cx="-58.576271"
     inkscape:cy="-4.3389831"
     inkscape:window-x="22"
     inkscape:window-y="42"
     inkscape:window-maximized="0"
     inkscape:current-layer="Layer_1" /><path
     d="m 133.9661,88.949152 0,288.852298 180.53269,0 72.21307,-72.21307 0,-216.639228 -252.74576,0 z m 180.53269,263.323838 0,-46.68461 46.68462,0 -46.68462,46.68461 z m 54.1598,-64.73789 -18.05326,0 0,-18.05326 -18.05328,0 0,18.05326 -36.10653,0 0,72.21309 -144.42615,0 0,-252.74577 216.63922,0 0,180.53268 z m -18.05326,-126.37288 -180.53269,0 0,-36.10653 180.53269,0 0,36.10653 z m -72.21307,54.15981 -108.31962,0 0,-18.05326 108.31962,0 0,18.05326 z m 54.15979,-18.05326 18.05328,0 0,18.05326 -18.05328,0 0,-18.05326 z m 0,36.10654 18.05328,0 0,18.05326 -18.05328,0 0,-18.05326 z m -36.10653,18.05326 -126.37288,0 0,-18.05326 126.37288,0 0,18.05326 z m -54.15981,36.10653 -72.21307,0 0,-18.05326 72.21307,0 0,18.05326 z m 18.05327,36.10654 -90.26634,0 0,-18.05326 90.26634,0 0,18.05326 z"
     id="path6276"
     inkscape:connector-curvature="0"
     style="fill:#2b1100" /></svg>